<svg width="24" height="24" viewBox="0 0 24 24" fill="none" xmlns="http://www.w3.org/2000/svg">
    <path fill="#FFFFFF" d="M12 0C5.375 0 0 5.375 0 12c0 5.25 3.437 9.703 8.203 11.25 0.6 0.125 0.82-0.263 0.82-0.583 0-0.287-0.012-1.04-0.012-1.885-3.004 0.65-3.638-1.464-3.638-1.464C4.273 18.01 3.547 17.53 3.547 17.53c-0.973-0.659 0.074-0.646 0.074-0.646 1.075 0.075 1.637 1.1 1.637 1.1 0.952 1.615 2.5 1.15 3.115 0.878 0.096-0.69 0.372-1.15 0.678-1.418-2.372-0.268-4.864-1.188-4.864-1.188-1.988-5.163-0.369-6.438-0.224-0.099 1.406-0.387 2.35-0.706 2.89 2.254 0.265 4.487 0.873 6.387 1.893 0.188-1.617 0.736-2.737 1.337-3.37-4.688-0.537-9.588-2.313-9.588-10.313 0-2.277 0.812-4.136 2.144-5.59-0.214-0.531-0.932-2.655 0.204-5.538 0 0 1.754-0.563 5.75 2.14 1.67-0.464 3.453-0.696 5.234-0.705 1.78 0.009 3.564 0.241 5.234 0.705 3.996-2.703 5.75-2.14 5.75-2.14 1.137 2.883 0.417 5.007 0.203 5.538 1.333 1.453 2.142 3.313 2.142 5.59 0 8-4.91 9.777-9.605 10.297 0.756 0.647 1.432 1.924 1.432 3.885 0 2.803-0.025 5.065-0.025 5.756 0 0.325 0.213 0.712 0.825 0.59C20.568 21.697 24 17.247 24 12c0-6.625-5.375-12-12-12z"/>
</svg>
